<?xml version="1.0" encoding="utf-8" standalone="no"?>
<!DOCTYPE svg PUBLIC "-//W3C//DTD SVG 1.1//EN"
  "http://www.w3.org/Graphics/SVG/1.1/DTD/svg11.dtd">
<!-- Created with matplotlib (https://matplotlib.org/) -->
<svg height="174.682317pt" version="1.1" viewBox="0 0 407.426646 174.682317" width="407.426646pt" xmlns="http://www.w3.org/2000/svg" xmlns:xlink="http://www.w3.org/1999/xlink">
 <defs>
  <style type="text/css">
*{stroke-linecap:butt;stroke-linejoin:round;}
  </style>
 </defs>
 <g id="figure_1">
  <g id="patch_1">
   <path d="M -0 174.682317 
L 407.426646 174.682317 
L 407.426646 0 
L -0 0 
z
" style="fill:#ffffff;"/>
  </g>
  <g id="axes_1">
   <g id="patch_2">
    <path d="M 43.106646 137.664 
L 400.226646 137.664 
L 400.226646 7.2 
L 43.106646 7.2 
z
" style="fill:#ffffff;"/>
   </g>
   <g id="matplotlib.axis_1">
    <g id="xtick_1">
     <g id="line2d_1">
      <defs>
       <path d="M 0 0 
L 0 3.5 
" id="m5dea53cb9a" style="stroke:#000000;stroke-width:0.8;"/>
      </defs>
      <g>
       <use style="stroke:#000000;stroke-width:0.8;" x="55.590926" xlink:href="#m5dea53cb9a" y="137.664"/>
      </g>
     </g>
     <g id="text_1">
      <!-- $0$ -->
      <defs>
       <path d="M 42 31.84375 
C 42 37.96875 41.90625 48.421875 37.703125 56.453125 
C 34 63.484375 28.09375 66 22.90625 66 
C 18.09375 66 12 63.78125 8.203125 56.5625 
C 4.203125 49.015625 3.796875 39.671875 3.796875 31.84375 
C 3.796875 26.109375 3.90625 17.375 7 9.734375 
C 11.296875 -0.609375 19 -2 22.90625 -2 
C 27.5 -2 34.5 -0.109375 38.59375 9.4375 
C 41.59375 16.375 42 24.5 42 31.84375 
z
M 22.90625 -0.40625 
C 16.5 -0.40625 12.703125 5.125 11.296875 12.75 
C 10.203125 18.6875 10.203125 27.328125 10.203125 32.953125 
C 10.203125 40.6875 10.203125 47.109375 11.5 53.234375 
C 13.40625 61.78125 19 64.390625 22.90625 64.390625 
C 27 64.390625 32.296875 61.671875 34.203125 53.4375 
C 35.5 47.71875 35.59375 40.984375 35.59375 32.953125 
C 35.59375 26.421875 35.59375 18.375 34.40625 12.453125 
C 32.296875 1.5 26.40625 -0.40625 22.90625 -0.40625 
z
" id="CMR17-48"/>
      </defs>
      <g transform="translate(53.100258 151.582498)scale(0.1 -0.1)">
       <use transform="scale(0.996264)" xlink:href="#CMR17-48"/>
      </g>
     </g>
    </g>
    <g id="xtick_2">
     <g id="line2d_2">
      <g>
       <use style="stroke:#000000;stroke-width:0.8;" x="113.762753" xlink:href="#m5dea53cb9a" y="137.664"/>
      </g>
     </g>
     <g id="text_2">
      <!-- $50$ -->
      <defs>
       <path d="M 11.40625 58.59375 
C 12.40625 58.1875 16.5 56.890625 20.703125 56.890625 
C 30 56.890625 35.09375 61.890625 38 64.6875 
C 38 65.484375 38 66 37.40625 66 
C 37.296875 66 37.09375 66 36.296875 65.59375 
C 32.796875 64.09375 28.703125 63 23.703125 63 
C 20.703125 63 16.203125 63.359375 11.296875 65.484375 
C 10.203125 66 10 66 9.90625 66 
C 9.40625 66 9.296875 65.890625 9.296875 63.90625 
L 9.296875 34.859375 
C 9.296875 33.015625 9.296875 32.5 10.296875 32.5 
C 10.796875 32.5 11 32.703125 11.5 33.421875 
C 14.703125 38.046875 19.09375 40 24.09375 40 
C 27.59375 40 35.09375 37.734375 35.09375 20.203125 
C 35.09375 16.984375 35.09375 11.1875 32.09375 6.59375 
C 29.59375 2.484375 25.703125 0.390625 21.40625 0.390625 
C 14.796875 0.390625 8.09375 4.984375 6.296875 12.6875 
C 6.703125 12.59375 7.5 12.390625 7.90625 12.390625 
C 9.203125 12.390625 11.703125 13.09375 11.703125 16.1875 
C 11.703125 18.890625 9.796875 20 7.90625 20 
C 5.59375 20 4.09375 18.59375 4.09375 15.796875 
C 4.09375 7.09375 11 -2 21.59375 -2 
C 31.90625 -2 41.703125 6.890625 41.703125 19.796875 
C 41.703125 32.09375 33.90625 41.59375 24.203125 41.59375 
C 19.09375 41.59375 14.796875 39.6875 11.40625 36 
z
" id="CMR17-53"/>
      </defs>
      <g transform="translate(108.781418 151.582498)scale(0.1 -0.1)">
       <use transform="scale(0.996264)" xlink:href="#CMR17-53"/>
       <use transform="translate(45.690477 0)scale(0.996264)" xlink:href="#CMR17-48"/>
      </g>
     </g>
    </g>
    <g id="xtick_3">
     <g id="line2d_3">
      <g>
       <use style="stroke:#000000;stroke-width:0.8;" x="171.934581" xlink:href="#m5dea53cb9a" y="137.664"/>
      </g>
     </g>
     <g id="text_3">
      <!-- $100$ -->
      <defs>
       <path d="M 26.59375 63.796875 
C 26.59375 65.890625 26.5 66 25.09375 66 
C 21.203125 61.359375 15.296875 59.890625 9.703125 59.6875 
C 9.40625 59.6875 8.90625 59.6875 8.796875 59.5 
C 8.703125 59.296875 8.703125 59.09375 8.703125 57 
C 11.796875 57 17 57.59375 21 59.984375 
L 21 7.296875 
C 21 3.796875 20.796875 2.59375 12.203125 2.59375 
L 9.203125 2.59375 
L 9.203125 0 
C 14 0.09375 19 0.1875 23.796875 0.1875 
C 28.59375 0.1875 33.59375 0.09375 38.40625 0 
L 38.40625 2.59375 
L 35.40625 2.59375 
C 26.796875 2.59375 26.59375 3.6875 26.59375 7.296875 
z
" id="CMR17-49"/>
      </defs>
      <g transform="translate(164.462578 151.582498)scale(0.1 -0.1)">
       <use transform="scale(0.996264)" xlink:href="#CMR17-49"/>
       <use transform="translate(45.690477 0)scale(0.996264)" xlink:href="#CMR17-48"/>
       <use transform="translate(91.380954 0)scale(0.996264)" xlink:href="#CMR17-48"/>
      </g>
     </g>
    </g>
    <g id="xtick_4">
     <g id="line2d_4">
      <g>
       <use style="stroke:#000000;stroke-width:0.8;" x="230.106408" xlink:href="#m5dea53cb9a" y="137.664"/>
      </g>
     </g>
     <g id="text_4">
      <!-- $150$ -->
      <g transform="translate(222.634406 151.582498)scale(0.1 -0.1)">
       <use transform="scale(0.996264)" xlink:href="#CMR17-49"/>
       <use transform="translate(45.690477 0)scale(0.996264)" xlink:href="#CMR17-53"/>
       <use transform="translate(91.380954 0)scale(0.996264)" xlink:href="#CMR17-48"/>
      </g>
     </g>
    </g>
    <g id="xtick_5">
     <g id="line2d_5">
      <g>
       <use style="stroke:#000000;stroke-width:0.8;" x="288.278236" xlink:href="#m5dea53cb9a" y="137.664"/>
      </g>
     </g>
     <g id="text_5">
      <!-- $200$ -->
      <defs>
       <path d="M 41.703125 15.46875 
L 39.90625 15.46875 
C 38.90625 8.390625 38.09375 7.1875 37.703125 6.59375 
C 37.203125 5.796875 30 5.796875 28.59375 5.796875 
L 9.40625 5.796875 
C 13 9.6875 20 16.765625 28.5 24.9375 
C 34.59375 30.71875 41.703125 37.5 41.703125 47.390625 
C 41.703125 59.1875 32.296875 66 21.796875 66 
C 10.796875 66 4.09375 56.296875 4.09375 47.296875 
C 4.09375 43.390625 7 42.890625 8.203125 42.890625 
C 9.203125 42.890625 12.203125 43.484375 12.203125 46.984375 
C 12.203125 50.09375 9.59375 51 8.203125 51 
C 7.59375 51 7 50.890625 6.59375 50.6875 
C 8.5 59.1875 14.296875 63.390625 20.40625 63.390625 
C 29.09375 63.390625 34.796875 56.5 34.796875 47.390625 
C 34.796875 38.703125 29.703125 31.21875 24 24.734375 
L 4.09375 2.296875 
L 4.09375 0 
L 39.296875 0 
z
" id="CMR17-50"/>
      </defs>
      <g transform="translate(280.806233 151.582498)scale(0.1 -0.1)">
       <use transform="scale(0.996264)" xlink:href="#CMR17-50"/>
       <use transform="translate(45.690477 0)scale(0.996264)" xlink:href="#CMR17-48"/>
       <use transform="translate(91.380954 0)scale(0.996264)" xlink:href="#CMR17-48"/>
      </g>
     </g>
    </g>
    <g id="xtick_6">
     <g id="line2d_6">
      <g>
       <use style="stroke:#000000;stroke-width:0.8;" x="346.450063" xlink:href="#m5dea53cb9a" y="137.664"/>
      </g>
     </g>
     <g id="text_6">
      <!-- $250$ -->
      <g transform="translate(338.978061 151.582498)scale(0.1 -0.1)">
       <use transform="scale(0.996264)" xlink:href="#CMR17-50"/>
       <use transform="translate(45.690477 0)scale(0.996264)" xlink:href="#CMR17-53"/>
       <use transform="translate(91.380954 0)scale(0.996264)" xlink:href="#CMR17-48"/>
      </g>
     </g>
    </g>
    <g id="text_7">
     <!-- Time [s] -->
     <defs>
      <path d="M 62.203125 67.6875 
L 4.5 67.6875 
L 2.796875 45.6875 
L 4.59375 45.6875 
C 5.90625 62.203125 7.296875 65.09375 22.703125 65.09375 
C 24.5 65.09375 27.40625 65.09375 28.203125 64.984375 
C 30.09375 64.6875 30.09375 63.5 30.09375 61.203125 
L 30.09375 7.265625 
C 30.09375 3.6875 29.796875 2.59375 21.5 2.59375 
L 18.703125 2.59375 
L 18.703125 0 
C 23.5 0.09375 28.5 0.1875 33.40625 0.1875 
C 38.296875 0.1875 43.296875 0.09375 48.09375 0 
L 48.09375 2.59375 
L 45.296875 2.59375 
C 37 2.59375 36.703125 3.6875 36.703125 7.265625 
L 36.703125 61.203125 
C 36.703125 63.390625 36.703125 64.59375 38.5 64.984375 
C 39.296875 65.09375 42.203125 65.09375 44 65.09375 
C 59.296875 65.09375 60.796875 62.203125 62.09375 45.6875 
L 63.90625 45.6875 
z
" id="CMR17-84"/>
      <path d="M 15.5 61.890625 
C 15.5 64.09375 13.703125 66 11.40625 66 
C 9.203125 66 7.296875 64.1875 7.296875 61.890625 
C 7.296875 59.6875 9.09375 57.796875 11.40625 57.796875 
C 13.59375 57.796875 15.5 59.59375 15.5 61.890625 
z
M 3.796875 42.890625 
L 3.796875 40.296875 
C 9.40625 40.296875 10.203125 39.6875 10.203125 34.859375 
L 10.203125 6.921875 
C 10.203125 3.09375 9.796875 2.59375 3.40625 2.59375 
L 3.40625 0 
C 5.796875 0.1875 10.09375 0.1875 12.59375 0.1875 
C 15 0.1875 19.09375 0.1875 21.40625 0 
L 21.40625 2.59375 
C 15.5 2.59375 15.296875 3.203125 15.296875 6.8125 
L 15.296875 44 
z
" id="CMR17-105"/>
      <path d="M 67.59375 30.53125 
C 67.59375 35.5625 66.703125 44 54.796875 44 
C 48 44 43.296875 39.375 41.5 33.953125 
L 41.40625 33.953125 
C 40.203125 42.1875 34.296875 44 28.703125 44 
C 20.796875 44 16.703125 37.875 15.203125 33.84375 
L 15.09375 33.84375 
L 15.09375 44 
L 3.296875 42.890625 
L 3.296875 40.28125 
C 9.203125 40.28125 10.09375 39.6875 10.09375 34.859375 
L 10.09375 6.921875 
C 10.09375 3.09375 9.703125 2.59375 3.296875 2.59375 
L 3.296875 0 
C 5.703125 0.1875 10.09375 0.1875 12.703125 0.1875 
C 15.296875 0.1875 19.796875 0.1875 22.203125 0 
L 22.203125 2.59375 
C 15.796875 2.59375 15.40625 3 15.40625 6.921875 
L 15.40625 26.21875 
C 15.40625 35.453125 21 42.390625 28 42.390625 
C 35.40625 42.390625 36.203125 35.765625 36.203125 30.9375 
L 36.203125 6.921875 
C 36.203125 3.09375 35.796875 2.59375 29.40625 2.59375 
L 29.40625 0 
C 31.796875 0.1875 36.203125 0.1875 38.796875 0.1875 
C 41.40625 0.1875 45.90625 0.1875 48.296875 0 
L 48.296875 2.59375 
C 41.90625 2.59375 41.5 3 41.5 6.921875 
L 41.5 26.21875 
C 41.5 35.453125 47.09375 42.390625 54.09375 42.390625 
C 61.5 42.390625 62.296875 35.765625 62.296875 30.9375 
L 62.296875 6.921875 
C 62.296875 3.09375 61.90625 2.59375 55.5 2.59375 
L 55.5 0 
C 57.90625 0.1875 62.296875 0.1875 64.90625 0.1875 
C 67.5 0.1875 72 0.1875 74.40625 0 
L 74.40625 2.59375 
C 68 2.59375 67.59375 3 67.59375 6.921875 
z
" id="CMR17-109"/>
      <path d="M 38.09375 23.484375 
C 38.5 23.890625 38.5 24.09375 38.5 25.09375 
C 38.5 35.171875 33.09375 44 21.703125 44 
C 11.09375 44 2.703125 33.984375 2.703125 21.78125 
C 2.703125 8.65625 12.203125 -1 22.796875 -1 
C 34 -1 38.40625 9.671875 38.40625 11.796875 
C 38.40625 12.5 37.796875 12.5 37.59375 12.5 
C 36.90625 12.5 36.796875 12.296875 36.40625 11.078125 
C 34.203125 4.21875 28.703125 0.796875 23.5 0.796875 
C 19.203125 0.796875 14.90625 3.21875 12.203125 7.65625 
C 9.09375 12.796875 9.09375 18.75 9.09375 23.484375 
z
M 9.203125 25 
C 9.90625 39.234375 17.59375 42.390625 21.59375 42.390625 
C 28.40625 42.390625 33 36.0625 33.09375 25 
z
" id="CMR17-101"/>
      <path d="M 23.5 -25 
L 23.5 -21.5 
L 14.09375 -21.5 
L 14.09375 71.484375 
L 23.5 71.484375 
L 23.5 75 
L 10.59375 75 
L 10.59375 -25 
z
" id="CMR17-91"/>
      <path d="M 30.90625 42 
C 30.90625 43.796875 30.796875 43.890625 30.203125 43.890625 
C 29.796875 43.890625 29.703125 43.796875 28.5 42.296875 
C 28.203125 41.890625 27.296875 40.890625 27 40.5 
C 23.796875 43.890625 19.296875 44 17.59375 44 
C 6.5 44 2.5 38.1875 2.5 32.390625 
C 2.5 23.390625 12.703125 21.296875 15.59375 20.6875 
C 21.90625 19.390625 24.09375 19 26.203125 17.1875 
C 27.5 16 29.703125 13.796875 29.703125 10.1875 
C 29.703125 6 27.296875 0.59375 18.09375 0.59375 
C 9.40625 0.59375 6.296875 7.1875 4.5 16 
C 4.203125 17.390625 4.203125 17.5 3.40625 17.5 
C 2.59375 17.5 2.5 17.390625 2.5 15.390625 
L 2.5 1 
C 2.5 -0.8125 2.59375 -0.90625 3.203125 -0.90625 
C 3.703125 -0.90625 3.796875 -0.8125 4.296875 0 
C 4.90625 0.890625 6.40625 3.296875 7 4.296875 
C 9 1.59375 12.5 -1 18.09375 -1 
C 28 -1 33.296875 4.390625 33.296875 12.1875 
C 33.296875 17.296875 30.59375 20 29.296875 21.1875 
C 26.296875 24.296875 22.796875 25 18.59375 25.796875 
C 13.09375 27 6.09375 28.390625 6.09375 34.5 
C 6.09375 37.09375 7.5 42.59375 17.59375 42.59375 
C 28.296875 42.59375 28.90625 32.59375 29.09375 29.390625 
C 29.203125 28.890625 29.703125 28.796875 30 28.796875 
C 30.90625 28.796875 30.90625 29.09375 30.90625 30.796875 
z
" id="CMR17-115"/>
      <path d="M 14.296875 75 
L 1.40625 75 
L 1.40625 71.484375 
L 10.796875 71.484375 
L 10.796875 -21.5 
L 1.40625 -21.5 
L 1.40625 -25 
L 14.296875 -25 
z
" id="CMR17-93"/>
     </defs>
     <g transform="translate(203.927587 164.991657)scale(0.1 -0.1)">
      <use transform="scale(0.996264)" xlink:href="#CMR17-84"/>
      <use transform="translate(66.509881 0)scale(0.996264)" xlink:href="#CMR17-105"/>
      <use transform="translate(91.380939 0)scale(0.996264)" xlink:href="#CMR17-109"/>
      <use transform="translate(168.300529 0)scale(0.996264)" xlink:href="#CMR17-101"/>
      <use transform="translate(238.862156 0)scale(0.996264)" xlink:href="#CMR17-91"/>
      <use transform="translate(263.733214 0)scale(0.996264)" xlink:href="#CMR17-115"/>
      <use transform="translate(299.534552 0)scale(0.996264)" xlink:href="#CMR17-93"/>
     </g>
    </g>
   </g>
   <g id="matplotlib.axis_2">
    <g id="ytick_1">
     <g id="line2d_7">
      <defs>
       <path d="M 0 0 
L -3.5 0 
" id="m572151d42a" style="stroke:#000000;stroke-width:0.8;"/>
      </defs>
      <g>
       <use style="stroke:#000000;stroke-width:0.8;" x="43.106646" xlink:href="#m572151d42a" y="113.906022"/>
      </g>
     </g>
     <g id="text_8">
      <!-- $135$ -->
      <defs>
       <path d="M 22.09375 34 
C 31 34 34.90625 26.140625 34.90625 17.09375 
C 34.90625 5.03125 28.5 0.390625 22.703125 0.390625 
C 17.40625 0.390625 8.796875 3.015625 6.09375 10.796875 
C 6.59375 10.59375 7.09375 10.59375 7.59375 10.59375 
C 10 10.59375 11.796875 12.1875 11.796875 14.796875 
C 11.796875 17.6875 9.59375 19 7.59375 19 
C 5.90625 19 3.296875 18.1875 3.296875 14.484375 
C 3.296875 5.234375 12.296875 -2 22.90625 -2 
C 34 -2 42.5 6.75 42.5 16.984375 
C 42.5 26.84375 34.5 34 25 35.09375 
C 32.59375 36.671875 39.90625 43.375 39.90625 52.390625 
C 39.90625 60.25 32 66 23 66 
C 13.90625 66 5.90625 60.34375 5.90625 52.296875 
C 5.90625 48.796875 8.5 48.1875 9.796875 48.1875 
C 11.90625 48.1875 13.703125 49.484375 13.703125 52.09375 
C 13.703125 54.6875 11.90625 56 9.796875 56 
C 9.40625 56 8.90625 56 8.5 55.796875 
C 11.40625 62.484375 19.296875 63.6875 22.796875 63.6875 
C 26.296875 63.6875 32.90625 61.96875 32.90625 52.296875 
C 32.90625 49.484375 32.5 44.546875 29.09375 40.21875 
C 26.09375 36.390625 22.703125 36.1875 19.40625 35.890625 
C 18.90625 35.890625 16.59375 35.6875 16.203125 35.6875 
C 15.5 35.59375 15.09375 35.5 15.09375 34.796875 
C 15.09375 34.09375 15.203125 34 17.203125 34 
z
" id="CMR17-51"/>
      </defs>
      <g transform="translate(21.16264 117.365271)scale(0.1 -0.1)">
       <use transform="scale(0.996264)" xlink:href="#CMR17-49"/>
       <use transform="translate(45.690477 0)scale(0.996264)" xlink:href="#CMR17-51"/>
       <use transform="translate(91.380954 0)scale(0.996264)" xlink:href="#CMR17-53"/>
      </g>
     </g>
    </g>
    <g id="ytick_2">
     <g id="line2d_8">
      <g>
       <use style="stroke:#000000;stroke-width:0.8;" x="43.106646" xlink:href="#m572151d42a" y="84.255113"/>
      </g>
     </g>
     <g id="text_9">
      <!-- $140$ -->
      <defs>
       <path d="M 33.59375 64.796875 
C 33.59375 66.890625 33.5 67 31.703125 67 
L 2 19.59375 
L 2 17 
L 27.796875 17 
L 27.796875 7.1875 
C 27.796875 3.59375 27.59375 2.59375 20.59375 2.59375 
L 18.703125 2.59375 
L 18.703125 0 
C 21.90625 0.1875 27.296875 0.1875 30.703125 0.1875 
C 34.09375 0.1875 39.5 0.1875 42.703125 0 
L 42.703125 2.59375 
L 40.796875 2.59375 
C 33.796875 2.59375 33.59375 3.59375 33.59375 7.1875 
L 33.59375 17 
L 43.796875 17 
L 43.796875 19.59375 
L 33.59375 19.59375 
z
M 28.09375 58.171875 
L 28.09375 19.59375 
L 4 19.59375 
z
" id="CMR17-52"/>
      </defs>
      <g transform="translate(21.16264 87.714362)scale(0.1 -0.1)">
       <use transform="scale(0.996264)" xlink:href="#CMR17-49"/>
       <use transform="translate(45.690477 0)scale(0.996264)" xlink:href="#CMR17-52"/>
       <use transform="translate(91.380954 0)scale(0.996264)" xlink:href="#CMR17-48"/>
      </g>
     </g>
    </g>
    <g id="ytick_3">
     <g id="line2d_9">
      <g>
       <use style="stroke:#000000;stroke-width:0.8;" x="43.106646" xlink:href="#m572151d42a" y="54.604204"/>
      </g>
     </g>
     <g id="text_10">
      <!-- $145$ -->
      <g transform="translate(21.16264 58.063453)scale(0.1 -0.1)">
       <use transform="scale(0.996264)" xlink:href="#CMR17-49"/>
       <use transform="translate(45.690477 0)scale(0.996264)" xlink:href="#CMR17-52"/>
       <use transform="translate(91.380954 0)scale(0.996264)" xlink:href="#CMR17-53"/>
      </g>
     </g>
    </g>
    <g id="ytick_4">
     <g id="line2d_10">
      <g>
       <use style="stroke:#000000;stroke-width:0.8;" x="43.106646" xlink:href="#m572151d42a" y="24.953295"/>
      </g>
     </g>
     <g id="text_11">
      <!-- $150$ -->
      <g transform="translate(21.16264 28.412544)scale(0.1 -0.1)">
       <use transform="scale(0.996264)" xlink:href="#CMR17-49"/>
       <use transform="translate(45.690477 0)scale(0.996264)" xlink:href="#CMR17-53"/>
       <use transform="translate(91.380954 0)scale(0.996264)" xlink:href="#CMR17-48"/>
      </g>
     </g>
    </g>
    <g id="text_12">
     <!-- Tempo [bpm] -->
     <defs>
      <path d="M 22 -17.40625 
C 15.59375 -17.40625 15.203125 -17 15.203125 -13.03125 
L 15.203125 5.9375 
C 18.09375 1.703125 22.296875 -1 27.59375 -1 
C 37.59375 -1 47.703125 7.859375 47.703125 21.59375 
C 47.703125 34.3125 39 44 28.703125 44 
C 22.703125 44 17.796875 40.671875 15 36.640625 
L 15 44 
L 3.09375 42.890625 
L 3.09375 40.265625 
C 9 40.265625 9.90625 39.671875 9.90625 34.8125 
L 9.90625 -13.03125 
C 9.90625 -16.890625 9.5 -17.40625 3.09375 -17.40625 
L 3.09375 -20 
C 5.5 -19.8125 9.90625 -19.8125 12.5 -19.8125 
C 15.09375 -19.8125 19.59375 -19.8125 22 -20 
z
M 15.203125 31.484375 
C 15.203125 32.90625 15.203125 35.015625 19.09375 38.765625 
C 19.59375 39.15625 23 42.1875 28 42.1875 
C 35.296875 42.1875 41.296875 33 41.296875 21.5 
C 41.296875 9.984375 34.90625 0.59375 27 0.59375 
C 23.40625 0.59375 19.5 2.3125 16.5 7.046875 
C 15.203125 9.28125 15.203125 9.875 15.203125 11.5 
z
" id="CMR17-112"/>
      <path d="M 43.09375 21.1875 
C 43.09375 34 33.796875 44 22.90625 44 
C 12 44 2.703125 34 2.703125 21.1875 
C 2.703125 8.59375 12 -1 22.90625 -1 
C 33.796875 -1 43.09375 8.59375 43.09375 21.1875 
z
M 22.90625 0.796875 
C 18.203125 0.796875 14.203125 3.59375 11.90625 7.5 
C 9.40625 12 9.09375 17.59375 9.09375 22 
C 9.09375 26.1875 9.296875 31.390625 11.90625 35.890625 
C 13.90625 39.1875 17.796875 42.390625 22.90625 42.390625 
C 27.40625 42.390625 31.203125 39.890625 33.59375 36.390625 
C 36.703125 31.6875 36.703125 25.09375 36.703125 22 
C 36.703125 18.09375 36.5 12.09375 33.796875 7.296875 
C 31 2.6875 26.703125 0.796875 22.90625 0.796875 
z
" id="CMR17-111"/>
      <path d="M 15 69 
L 3.09375 67.890625 
L 3.09375 65.296875 
C 9 65.296875 9.90625 64.703125 9.90625 60.046875 
L 9.90625 -0.203125 
L 11.703125 -0.203125 
L 14.59375 6.953125 
C 17.5 2.203125 21.796875 -1 27.59375 -1 
C 37.59375 -1 47.703125 7.859375 47.703125 21.59375 
C 47.703125 34.515625 38.703125 44 28.59375 44 
C 22.40625 44 18 40.671875 15 36.734375 
z
M 15.203125 31.59375 
C 15.203125 33.40625 15.203125 33.703125 16.59375 35.828125 
C 20.5 41.890625 26.09375 42.390625 28 42.390625 
C 31 42.390625 41.296875 40.78125 41.296875 21.6875 
C 41.296875 1.703125 29.5 0.59375 27.09375 0.59375 
C 24 0.59375 19.5 1.796875 16.296875 7.65625 
C 15.203125 9.578125 15.203125 9.78125 15.203125 11.59375 
z
" id="CMR17-98"/>
     </defs>
     <g transform="translate(14.67198 101.489766)rotate(-90)scale(0.1 -0.1)">
      <use transform="scale(0.996264)" xlink:href="#CMR17-84"/>
      <use transform="translate(58.702625 0)scale(0.996264)" xlink:href="#CMR17-101"/>
      <use transform="translate(99.188286 0)scale(0.996264)" xlink:href="#CMR17-109"/>
      <use transform="translate(176.107875 0)scale(0.996264)" xlink:href="#CMR17-112"/>
      <use transform="translate(229.605684 0)scale(0.996264)" xlink:href="#CMR17-111"/>
      <use transform="translate(305.372127 0)scale(0.996264)" xlink:href="#CMR17-91"/>
      <use transform="translate(330.243186 0)scale(0.996264)" xlink:href="#CMR17-98"/>
      <use transform="translate(381.138556 0)scale(0.996264)" xlink:href="#CMR17-112"/>
      <use transform="translate(432.033926 0)scale(0.996264)" xlink:href="#CMR17-109"/>
      <use transform="translate(508.953515 0)scale(0.996264)" xlink:href="#CMR17-93"/>
     </g>
    </g>
   </g>
   <g id="line2d_11">
    <path clip-path="url(#p80e837df33)" d="M 59.339373 108.870962 
L 61.394778 108.870962 
L 61.394778 100.714105 
L 63.42958 100.714105 
L 63.42958 93.871624 
L 65.447415 93.871624 
L 65.447415 96.818155 
L 67.472522 96.818155 
L 67.472522 101.198489 
L 69.508536 101.198489 
L 69.508536 120.5736 
L 71.594238 120.5736 
L 71.594238 94.856158 
L 73.614497 94.856158 
L 73.614497 97.307188 
L 75.640816 97.307188 
L 75.640816 110.766514 
L 77.701068 110.766514 
L 77.701068 108.395676 
L 79.755261 108.395676 
L 79.755261 105.532142 
L 81.802182 105.532142 
L 81.802182 78.814579 
L 83.78366 78.814579 
L 83.78366 132.836465 
L 85.902084 132.836465 
L 85.902084 100.229142 
L 87.935674 100.229142 
L 87.935674 88.414128 
L 89.940178 88.414128 
L 89.940178 50.271908 
L 91.856213 50.271908 
L 91.856213 102.64819 
L 93.895862 102.64819 
L 93.895862 91.895443 
L 95.90885 91.895443 
L 95.90885 93.378469 
L 97.925473 93.378469 
L 97.925473 39.759766 
L 99.818482 39.759766 
L 99.818482 92.39038 
L 101.832681 92.39038 
L 101.832681 77.791106 
L 103.811735 77.791106 
L 103.811735 65.838399 
L 105.762915 65.838399 
L 105.762915 78.814579 
L 107.744393 78.814579 
L 107.744393 63.194654 
L 109.689514 63.194654 
L 109.689514 74.705588 
L 111.661296 74.705588 
L 111.661296 45.876695 
L 113.567635 45.876695 
L 113.567635 67.941601 
L 115.523663 67.941601 
L 115.523663 87.91439 
L 117.526955 87.91439 
L 117.526955 40.319409 
L 119.421176 40.319409 
L 119.421176 54.081392 
L 121.345694 54.081392 
L 121.345694 58.930229 
L 123.281119 58.930229 
L 123.281119 109.345688 
L 125.337735 109.345688 
L 125.337735 62.663927 
L 127.281644 62.663927 
L 127.281644 74.189122 
L 129.252214 74.189122 
L 129.252214 63.194654 
L 131.197335 63.194654 
L 131.197335 84.90322 
L 133.193356 84.90322 
L 133.193356 52.996399 
L 135.11545 52.996399 
L 135.11545 73.15428 
L 137.083597 73.15428 
L 137.083597 74.189122 
L 139.054167 74.189122 
L 139.054167 70.55599 
L 141.016255 70.55599 
L 141.016255 95.347539 
L 143.037726 95.347539 
L 143.037726 66.365179 
L 144.990118 66.365179 
L 144.990118 85.406604 
L 146.98735 85.406604 
L 146.98735 109.345688 
L 149.043967 109.345688 
L 149.043967 100.714105 
L 151.078769 100.714105 
L 151.078769 78.303156 
L 153.059035 78.303156 
L 153.059035 82.883555 
L 155.050208 82.883555 
L 155.050208 106.966447 
L 157.100765 106.966447 
L 157.100765 86.411543 
L 159.100422 86.411543 
L 159.100422 106.488911 
L 161.149767 106.488911 
L 161.149767 69.512175 
L 163.10943 69.512175 
L 163.10943 77.791106 
L 165.088484 77.791106 
L 165.088484 63.72472 
L 167.034816 63.72472 
L 167.034816 66.891305 
L 168.98842 66.891305 
L 168.98842 83.389393 
L 170.980805 83.389393 
L 170.980805 85.909378 
L 172.97925 85.909378 
L 172.97925 67.941601 
L 174.935278 67.941601 
L 174.935278 96.328537 
L 176.959173 96.328537 
L 176.959173 48.628925 
L 178.871571 48.628925 
L 178.871571 85.406604 
L 180.868804 85.406604 
L 180.868804 62.132538 
L 182.811501 62.132538 
L 182.811501 70.034405 
L 184.772376 70.034405 
L 184.772376 78.814579 
L 186.753854 78.814579 
L 186.753854 113.593175 
L 188.821378 113.593175 
L 188.821378 45.324148 
L 190.726505 45.324148 
L 190.726505 84.90322 
L 192.722526 84.90322 
L 192.722526 80.345103 
L 194.70764 80.345103 
L 194.70764 51.36377 
L 196.626098 51.36377 
L 196.626098 69.512175 
L 198.585761 69.512175 
L 198.585761 68.465774 
L 200.543001 68.465774 
L 200.543001 73.672019 
L 202.51236 73.672019 
L 202.51236 73.15428 
L 204.480507 73.15428 
L 204.480507 81.870031 
L 206.469256 81.870031 
L 206.469256 114.530982 
L 208.539203 114.530982 
L 208.539203 57.857438 
L 210.472205 57.857438 
L 210.472205 109.819854 
L 212.530033 109.819854 
L 212.530033 89.411793 
L 214.536961 89.411793 
L 214.536961 78.303156 
L 216.517227 78.303156 
L 216.517227 81.870031 
L 218.505977 81.870031 
L 218.505977 101.198489 
L 220.541991 101.198489 
L 220.541991 100.714105 
L 222.576793 100.714105 
L 222.576793 70.55599 
L 224.53888 70.55599 
L 224.53888 120.5736 
L 226.624582 120.5736 
L 226.624582 51.36377 
L 228.543041 51.36377 
L 228.543041 85.406604 
L 230.540273 85.406604 
L 230.540273 54.081392 
L 232.464791 54.081392 
L 232.464791 67.941601 
L 234.420819 67.941601 
L 234.420819 62.663927 
L 236.364728 62.663927 
L 236.364728 67.941601 
L 238.320755 67.941601 
L 238.320755 44.216943 
L 240.223459 44.216943 
L 240.223459 55.703766 
L 242.151613 55.703766 
L 242.151613 72.116886 
L 244.117336 72.116886 
L 244.117336 67.941601 
L 246.073363 67.941601 
L 246.073363 89.411793 
L 248.080291 89.411793 
L 248.080291 69.512175 
L 250.039955 69.512175 
L 250.039955 76.765122 
L 253.993215 76.765122 
L 253.993215 76.251186 
L 255.968633 76.251186 
L 255.968633 104.092732 
L 258.011919 104.092732 
L 258.011919 107.44342 
L 260.063688 107.44342 
L 260.063688 73.15428 
L 262.031835 73.15428 
L 262.031835 72.116886 
L 263.997558 72.116886 
L 263.997558 66.365179 
L 265.94995 66.365179 
L 265.94995 64.254126 
L 267.897494 64.254126 
L 267.897494 105.052907 
L 269.943203 105.052907 
L 269.943203 105.532142 
L 271.990124 105.532142 
L 271.990124 81.362341 
L 273.977662 81.362341 
L 273.977662 81.870031 
L 275.966411 81.870031 
L 275.966411 60.534386 
L 277.905472 60.534386 
L 277.905472 82.883555 
L 279.896645 82.883555 
L 279.896645 51.908667 
L 281.816315 51.908667 
L 281.816315 113.123447 
L 283.882627 113.123447 
L 283.882627 97.307188 
L 285.908946 97.307188 
L 285.908946 114.062354 
L 287.977682 114.062354 
L 287.977682 109.345688 
L 290.034298 109.345688 
L 290.034298 101.682298 
L 292.071524 101.682298 
L 292.071524 92.884722 
L 294.086935 92.884722 
L 294.086935 116.86592 
L 296.162942 116.86592 
L 296.162942 127.886502 
L 298.268035 127.886502 
L 298.268035 100.714105 
L 300.302838 100.714105 
L 300.302838 115.933583 
L 302.376421 115.933583 
L 302.376421 100.714105 
L 304.411223 100.714105 
L 304.411223 91.895443 
L 306.42421 91.895443 
L 306.42421 102.165531 
L 308.462648 102.165531 
L 308.462648 26.687266 
L 310.327782 26.687266 
L 310.327782 50.271908 
L 312.243817 50.271908 
L 312.243817 36.950772 
L 314.130766 36.950772 
L 314.130766 91.895443 
L 316.143753 91.895443 
L 316.143753 93.378469 
L 318.160377 93.378469 
L 318.160377 85.909378 
L 320.158821 85.909378 
L 320.158821 63.72472 
L 322.105154 63.72472 
L 322.105154 49.72494 
L 324.019976 49.72494 
L 324.019976 60.534386 
L 325.959037 60.534386 
L 325.959037 44.216943 
L 327.861741 44.216943 
L 327.861741 70.55599 
L 329.823828 70.55599 
L 329.823828 43.106912 
L 331.724108 43.106912 
L 331.724108 60.534386 
L 333.663169 60.534386 
L 333.663169 46.979684 
L 335.571932 46.979684 
L 335.571932 84.399224 
L 337.566741 84.399224 
L 337.566741 44.216943 
L 339.469444 44.216943 
L 339.469444 77.278428 
L 341.447286 77.278428 
L 341.447286 58.39417 
L 343.3815 58.39417 
L 343.3815 78.814579 
L 345.362977 78.814579 
L 345.362977 65.310965 
L 347.312946 65.310965 
L 347.312946 77.278428 
L 349.290788 77.278428 
L 349.290788 80.854032 
L 351.277113 80.854032 
L 351.277113 82.883555 
L 353.268286 82.883555 
L 353.268286 33.556073 
L 355.147964 33.556073 
L 355.147964 20.296084 
L 356.999767 20.296084 
L 356.999767 24.953295 
L 358.861265 24.953295 
L 358.861265 47.530129 
L 360.77124 47.530129 
L 360.77124 39.199407 
L 362.663037 39.199407 
L 362.663037 12.027535 
L 364.497873 12.027535 
L 364.497873 30.135007 
L 366.370279 30.135007 
L 366.370279 38.63833 
L 368.260863 38.63833 
L 368.260863 48.079876 
L 370.17205 48.079876 
L 370.17205 53.539237 
L 372.095356 53.539237 
L 372.095356 14.40554 
L 373.93504 14.40554 
L 373.93504 54.622864 
L 375.86077 54.622864 
L 375.86077 44.216943 
L 377.763473 44.216943 
L 377.763473 40.878335 
L 379.658906 40.878335 
L 379.658906 36.950772 
L 381.545854 36.950772 
L 381.545854 57.857438 
L 383.478856 57.857438 
L 383.478856 65.838399 
L 383.993919 65.838399 
L 383.993919 65.838399 
" style="fill:none;stroke:#008080;stroke-linecap:square;"/>
   </g>
   <g id="patch_3">
    <path d="M 43.106646 137.664 
L 43.106646 7.2 
" style="fill:none;stroke:#000000;stroke-linecap:square;stroke-linejoin:miter;stroke-width:0.8;"/>
   </g>
   <g id="patch_4">
    <path d="M 400.226646 137.664 
L 400.226646 7.2 
" style="fill:none;stroke:#000000;stroke-linecap:square;stroke-linejoin:miter;stroke-width:0.8;"/>
   </g>
   <g id="patch_5">
    <path d="M 43.106646 137.664 
L 400.226646 137.664 
" style="fill:none;stroke:#000000;stroke-linecap:square;stroke-linejoin:miter;stroke-width:0.8;"/>
   </g>
   <g id="patch_6">
    <path d="M 43.106646 7.2 
L 400.226646 7.2 
" style="fill:none;stroke:#000000;stroke-linecap:square;stroke-linejoin:miter;stroke-width:0.8;"/>
   </g>
  </g>
 </g>
 <defs>
  <clipPath id="p80e837df33">
   <rect height="130.464" width="357.12" x="43.106646" y="7.2"/>
  </clipPath>
 </defs>
</svg>
